<mxfile host="app.diagrams.net" agent="Mozilla/5.0 (Macintosh; Intel Mac OS X 10_15_7) AppleWebKit/605.1.15 (KHTML, like Gecko) Version/17.3.1 Safari/605.1.15" version="26.0.14">
  <diagram name="Page-1" id="l48av0Uk6vEJZPpk6qLo">
    <mxGraphModel dx="1466" dy="989" grid="1" gridSize="10" guides="1" tooltips="1" connect="1" arrows="1" fold="1" page="1" pageScale="1" pageWidth="827" pageHeight="1169" math="0" shadow="0">
      <root>
        <mxCell id="0" />
        <mxCell id="1" parent="0" />
        <mxCell id="wz7HzAPbCdKOKnJgc9Ps-3" value="" style="ellipse;whiteSpace=wrap;html=1;aspect=fixed;strokeColor=#4D4D4D;fillColor=#4D4D4D;" vertex="1" parent="1">
          <mxGeometry x="160" y="360" width="40" height="40" as="geometry" />
        </mxCell>
        <mxCell id="wz7HzAPbCdKOKnJgc9Ps-19" style="rounded=0;orthogonalLoop=1;jettySize=auto;html=1;exitX=1;exitY=0.5;exitDx=0;exitDy=0;entryX=0;entryY=0.5;entryDx=0;entryDy=0;endArrow=none;startFill=0;" edge="1" parent="1" source="wz7HzAPbCdKOKnJgc9Ps-4" target="wz7HzAPbCdKOKnJgc9Ps-9">
          <mxGeometry relative="1" as="geometry" />
        </mxCell>
        <mxCell id="wz7HzAPbCdKOKnJgc9Ps-4" value="" style="ellipse;whiteSpace=wrap;html=1;aspect=fixed;strokeColor=#3333FF;fillColor=#3333FF;" vertex="1" parent="1">
          <mxGeometry x="160" y="200" width="40" height="40" as="geometry" />
        </mxCell>
        <mxCell id="wz7HzAPbCdKOKnJgc9Ps-5" value="" style="ellipse;whiteSpace=wrap;html=1;aspect=fixed;strokeColor=#3333FF;fillColor=#3333FF;" vertex="1" parent="1">
          <mxGeometry x="160" y="280" width="40" height="40" as="geometry" />
        </mxCell>
        <mxCell id="wz7HzAPbCdKOKnJgc9Ps-8" value="" style="ellipse;whiteSpace=wrap;html=1;aspect=fixed;strokeColor=#4D4D4D;fillColor=#4D4D4D;" vertex="1" parent="1">
          <mxGeometry x="160" y="440" width="40" height="40" as="geometry" />
        </mxCell>
        <mxCell id="wz7HzAPbCdKOKnJgc9Ps-9" value="" style="ellipse;whiteSpace=wrap;html=1;aspect=fixed;strokeColor=#3333FF;fillColor=#3333FF;" vertex="1" parent="1">
          <mxGeometry x="360" y="160" width="40" height="40" as="geometry" />
        </mxCell>
        <mxCell id="wz7HzAPbCdKOKnJgc9Ps-13" value="" style="ellipse;whiteSpace=wrap;html=1;aspect=fixed;strokeColor=#3333FF;fillColor=#3333FF;" vertex="1" parent="1">
          <mxGeometry x="360" y="320" width="40" height="40" as="geometry" />
        </mxCell>
        <mxCell id="wz7HzAPbCdKOKnJgc9Ps-14" value="" style="ellipse;whiteSpace=wrap;html=1;aspect=fixed;strokeColor=#3333FF;fillColor=#3333FF;" vertex="1" parent="1">
          <mxGeometry x="360" y="240" width="40" height="40" as="geometry" />
        </mxCell>
        <mxCell id="wz7HzAPbCdKOKnJgc9Ps-15" value="" style="ellipse;whiteSpace=wrap;html=1;aspect=fixed;strokeColor=#4D4D4D;fillColor=#4D4D4D;" vertex="1" parent="1">
          <mxGeometry x="360" y="480" width="40" height="40" as="geometry" />
        </mxCell>
        <mxCell id="wz7HzAPbCdKOKnJgc9Ps-16" value="" style="ellipse;whiteSpace=wrap;html=1;aspect=fixed;strokeColor=#4D4D4D;fillColor=#4D4D4D;" vertex="1" parent="1">
          <mxGeometry x="360" y="400" width="40" height="40" as="geometry" />
        </mxCell>
        <mxCell id="wz7HzAPbCdKOKnJgc9Ps-17" value="" style="ellipse;whiteSpace=wrap;html=1;aspect=fixed;strokeColor=#CC0000;fillColor=#CC0000;" vertex="1" parent="1">
          <mxGeometry x="560" y="280" width="40" height="40" as="geometry" />
        </mxCell>
        <mxCell id="wz7HzAPbCdKOKnJgc9Ps-18" value="" style="ellipse;whiteSpace=wrap;html=1;aspect=fixed;strokeColor=#CC0000;fillColor=#CC0000;" vertex="1" parent="1">
          <mxGeometry x="560" y="360" width="40" height="40" as="geometry" />
        </mxCell>
        <mxCell id="wz7HzAPbCdKOKnJgc9Ps-20" style="rounded=0;orthogonalLoop=1;jettySize=auto;html=1;exitX=1;exitY=0.5;exitDx=0;exitDy=0;entryX=0;entryY=0.5;entryDx=0;entryDy=0;endArrow=none;startFill=0;" edge="1" parent="1" source="wz7HzAPbCdKOKnJgc9Ps-4" target="wz7HzAPbCdKOKnJgc9Ps-14">
          <mxGeometry relative="1" as="geometry">
            <mxPoint x="210" y="230" as="sourcePoint" />
            <mxPoint x="330" y="190" as="targetPoint" />
          </mxGeometry>
        </mxCell>
        <mxCell id="wz7HzAPbCdKOKnJgc9Ps-21" style="rounded=0;orthogonalLoop=1;jettySize=auto;html=1;exitX=1;exitY=0.5;exitDx=0;exitDy=0;entryX=0;entryY=0.5;entryDx=0;entryDy=0;endArrow=none;startFill=0;" edge="1" parent="1" source="wz7HzAPbCdKOKnJgc9Ps-4" target="wz7HzAPbCdKOKnJgc9Ps-13">
          <mxGeometry relative="1" as="geometry">
            <mxPoint x="210" y="230" as="sourcePoint" />
            <mxPoint x="330" y="270" as="targetPoint" />
          </mxGeometry>
        </mxCell>
        <mxCell id="wz7HzAPbCdKOKnJgc9Ps-22" style="rounded=0;orthogonalLoop=1;jettySize=auto;html=1;exitX=1;exitY=0.5;exitDx=0;exitDy=0;endArrow=none;startFill=0;entryX=0;entryY=0.5;entryDx=0;entryDy=0;" edge="1" parent="1" source="wz7HzAPbCdKOKnJgc9Ps-5" target="wz7HzAPbCdKOKnJgc9Ps-9">
          <mxGeometry relative="1" as="geometry">
            <mxPoint x="210" y="230" as="sourcePoint" />
            <mxPoint x="320" y="180" as="targetPoint" />
          </mxGeometry>
        </mxCell>
        <mxCell id="wz7HzAPbCdKOKnJgc9Ps-23" style="rounded=0;orthogonalLoop=1;jettySize=auto;html=1;exitX=1;exitY=0.5;exitDx=0;exitDy=0;entryX=0;entryY=0.5;entryDx=0;entryDy=0;endArrow=none;startFill=0;" edge="1" parent="1" source="wz7HzAPbCdKOKnJgc9Ps-4" target="wz7HzAPbCdKOKnJgc9Ps-15">
          <mxGeometry relative="1" as="geometry">
            <mxPoint x="220" y="240" as="sourcePoint" />
            <mxPoint x="340" y="360" as="targetPoint" />
          </mxGeometry>
        </mxCell>
        <mxCell id="wz7HzAPbCdKOKnJgc9Ps-24" style="rounded=0;orthogonalLoop=1;jettySize=auto;html=1;exitX=1;exitY=0.5;exitDx=0;exitDy=0;entryX=0;entryY=0.5;entryDx=0;entryDy=0;endArrow=none;startFill=0;" edge="1" parent="1" source="wz7HzAPbCdKOKnJgc9Ps-4" target="wz7HzAPbCdKOKnJgc9Ps-16">
          <mxGeometry relative="1" as="geometry">
            <mxPoint x="230" y="250" as="sourcePoint" />
            <mxPoint x="350" y="370" as="targetPoint" />
          </mxGeometry>
        </mxCell>
        <mxCell id="wz7HzAPbCdKOKnJgc9Ps-25" style="rounded=0;orthogonalLoop=1;jettySize=auto;html=1;exitX=0;exitY=0.5;exitDx=0;exitDy=0;entryX=1;entryY=0.5;entryDx=0;entryDy=0;endArrow=none;startFill=0;" edge="1" parent="1" source="wz7HzAPbCdKOKnJgc9Ps-14" target="wz7HzAPbCdKOKnJgc9Ps-3">
          <mxGeometry relative="1" as="geometry">
            <mxPoint x="240" y="260" as="sourcePoint" />
            <mxPoint x="360" y="380" as="targetPoint" />
          </mxGeometry>
        </mxCell>
        <mxCell id="wz7HzAPbCdKOKnJgc9Ps-26" style="rounded=0;orthogonalLoop=1;jettySize=auto;html=1;exitX=0;exitY=0.5;exitDx=0;exitDy=0;entryX=1;entryY=0.5;entryDx=0;entryDy=0;endArrow=none;startFill=0;" edge="1" parent="1" source="wz7HzAPbCdKOKnJgc9Ps-9" target="wz7HzAPbCdKOKnJgc9Ps-8">
          <mxGeometry relative="1" as="geometry">
            <mxPoint x="250" y="270" as="sourcePoint" />
            <mxPoint x="370" y="390" as="targetPoint" />
          </mxGeometry>
        </mxCell>
        <mxCell id="wz7HzAPbCdKOKnJgc9Ps-27" style="rounded=0;orthogonalLoop=1;jettySize=auto;html=1;exitX=0;exitY=0.5;exitDx=0;exitDy=0;entryX=1;entryY=0.5;entryDx=0;entryDy=0;endArrow=none;startFill=0;" edge="1" parent="1" source="wz7HzAPbCdKOKnJgc9Ps-14" target="wz7HzAPbCdKOKnJgc9Ps-8">
          <mxGeometry relative="1" as="geometry">
            <mxPoint x="330" y="190" as="sourcePoint" />
            <mxPoint x="210" y="470" as="targetPoint" />
          </mxGeometry>
        </mxCell>
        <mxCell id="wz7HzAPbCdKOKnJgc9Ps-28" style="rounded=0;orthogonalLoop=1;jettySize=auto;html=1;entryX=1;entryY=0.5;entryDx=0;entryDy=0;endArrow=none;startFill=0;exitX=0;exitY=0.5;exitDx=0;exitDy=0;" edge="1" parent="1" source="wz7HzAPbCdKOKnJgc9Ps-15" target="wz7HzAPbCdKOKnJgc9Ps-8">
          <mxGeometry relative="1" as="geometry">
            <mxPoint x="320" y="500" as="sourcePoint" />
            <mxPoint x="210" y="470" as="targetPoint" />
          </mxGeometry>
        </mxCell>
        <mxCell id="wz7HzAPbCdKOKnJgc9Ps-29" style="rounded=0;orthogonalLoop=1;jettySize=auto;html=1;exitX=0;exitY=0.5;exitDx=0;exitDy=0;endArrow=none;startFill=0;entryX=1;entryY=0.5;entryDx=0;entryDy=0;" edge="1" parent="1" source="wz7HzAPbCdKOKnJgc9Ps-13" target="wz7HzAPbCdKOKnJgc9Ps-8">
          <mxGeometry relative="1" as="geometry">
            <mxPoint x="340" y="280" as="sourcePoint" />
            <mxPoint x="200" y="460" as="targetPoint" />
          </mxGeometry>
        </mxCell>
        <mxCell id="wz7HzAPbCdKOKnJgc9Ps-30" style="rounded=0;orthogonalLoop=1;jettySize=auto;html=1;exitX=0;exitY=0.5;exitDx=0;exitDy=0;entryX=1;entryY=0.5;entryDx=0;entryDy=0;endArrow=none;startFill=0;" edge="1" parent="1" source="wz7HzAPbCdKOKnJgc9Ps-13" target="wz7HzAPbCdKOKnJgc9Ps-3">
          <mxGeometry relative="1" as="geometry">
            <mxPoint x="330" y="270" as="sourcePoint" />
            <mxPoint x="210" y="390" as="targetPoint" />
          </mxGeometry>
        </mxCell>
        <mxCell id="wz7HzAPbCdKOKnJgc9Ps-31" style="rounded=0;orthogonalLoop=1;jettySize=auto;html=1;exitX=0;exitY=0.5;exitDx=0;exitDy=0;entryX=1;entryY=0.5;entryDx=0;entryDy=0;endArrow=none;startFill=0;" edge="1" parent="1" source="wz7HzAPbCdKOKnJgc9Ps-9" target="wz7HzAPbCdKOKnJgc9Ps-3">
          <mxGeometry relative="1" as="geometry">
            <mxPoint x="340" y="280" as="sourcePoint" />
            <mxPoint x="220" y="400" as="targetPoint" />
          </mxGeometry>
        </mxCell>
        <mxCell id="wz7HzAPbCdKOKnJgc9Ps-32" style="rounded=0;orthogonalLoop=1;jettySize=auto;html=1;exitX=1;exitY=0.5;exitDx=0;exitDy=0;endArrow=none;startFill=0;entryX=0;entryY=0.5;entryDx=0;entryDy=0;" edge="1" parent="1" source="wz7HzAPbCdKOKnJgc9Ps-5" target="wz7HzAPbCdKOKnJgc9Ps-14">
          <mxGeometry relative="1" as="geometry">
            <mxPoint x="210" y="310" as="sourcePoint" />
            <mxPoint x="330" y="190" as="targetPoint" />
          </mxGeometry>
        </mxCell>
        <mxCell id="wz7HzAPbCdKOKnJgc9Ps-33" style="rounded=0;orthogonalLoop=1;jettySize=auto;html=1;exitX=1;exitY=0.5;exitDx=0;exitDy=0;endArrow=none;startFill=0;entryX=0;entryY=0.5;entryDx=0;entryDy=0;" edge="1" parent="1" source="wz7HzAPbCdKOKnJgc9Ps-5" target="wz7HzAPbCdKOKnJgc9Ps-13">
          <mxGeometry relative="1" as="geometry">
            <mxPoint x="210" y="310" as="sourcePoint" />
            <mxPoint x="330" y="270" as="targetPoint" />
          </mxGeometry>
        </mxCell>
        <mxCell id="wz7HzAPbCdKOKnJgc9Ps-34" style="rounded=0;orthogonalLoop=1;jettySize=auto;html=1;exitX=1;exitY=0.5;exitDx=0;exitDy=0;endArrow=none;startFill=0;entryX=0;entryY=0.5;entryDx=0;entryDy=0;" edge="1" parent="1" source="wz7HzAPbCdKOKnJgc9Ps-5" target="wz7HzAPbCdKOKnJgc9Ps-16">
          <mxGeometry relative="1" as="geometry">
            <mxPoint x="210" y="310" as="sourcePoint" />
            <mxPoint x="330" y="350" as="targetPoint" />
          </mxGeometry>
        </mxCell>
        <mxCell id="wz7HzAPbCdKOKnJgc9Ps-35" style="rounded=0;orthogonalLoop=1;jettySize=auto;html=1;exitX=1;exitY=0.5;exitDx=0;exitDy=0;endArrow=none;startFill=0;entryX=0;entryY=0.5;entryDx=0;entryDy=0;" edge="1" parent="1" source="wz7HzAPbCdKOKnJgc9Ps-5" target="wz7HzAPbCdKOKnJgc9Ps-15">
          <mxGeometry relative="1" as="geometry">
            <mxPoint x="210" y="310" as="sourcePoint" />
            <mxPoint x="330" y="430" as="targetPoint" />
          </mxGeometry>
        </mxCell>
        <mxCell id="wz7HzAPbCdKOKnJgc9Ps-36" style="rounded=0;orthogonalLoop=1;jettySize=auto;html=1;endArrow=none;startFill=0;entryX=1;entryY=0.5;entryDx=0;entryDy=0;exitX=0;exitY=0.5;exitDx=0;exitDy=0;" edge="1" parent="1" source="wz7HzAPbCdKOKnJgc9Ps-16" target="wz7HzAPbCdKOKnJgc9Ps-8">
          <mxGeometry relative="1" as="geometry">
            <mxPoint x="330" y="510" as="sourcePoint" />
            <mxPoint x="200" y="460" as="targetPoint" />
          </mxGeometry>
        </mxCell>
        <mxCell id="wz7HzAPbCdKOKnJgc9Ps-37" style="rounded=0;orthogonalLoop=1;jettySize=auto;html=1;exitX=0;exitY=0.5;exitDx=0;exitDy=0;entryX=1;entryY=0.5;entryDx=0;entryDy=0;endArrow=none;startFill=0;" edge="1" parent="1" source="wz7HzAPbCdKOKnJgc9Ps-16" target="wz7HzAPbCdKOKnJgc9Ps-3">
          <mxGeometry relative="1" as="geometry">
            <mxPoint x="330" y="350" as="sourcePoint" />
            <mxPoint x="210" y="390" as="targetPoint" />
          </mxGeometry>
        </mxCell>
        <mxCell id="wz7HzAPbCdKOKnJgc9Ps-38" style="rounded=0;orthogonalLoop=1;jettySize=auto;html=1;exitX=0;exitY=0.5;exitDx=0;exitDy=0;entryX=1;entryY=0.5;entryDx=0;entryDy=0;endArrow=none;startFill=0;" edge="1" parent="1" source="wz7HzAPbCdKOKnJgc9Ps-15" target="wz7HzAPbCdKOKnJgc9Ps-3">
          <mxGeometry relative="1" as="geometry">
            <mxPoint x="330" y="430" as="sourcePoint" />
            <mxPoint x="210" y="390" as="targetPoint" />
          </mxGeometry>
        </mxCell>
        <mxCell id="wz7HzAPbCdKOKnJgc9Ps-39" style="rounded=0;orthogonalLoop=1;jettySize=auto;html=1;exitX=1;exitY=0.5;exitDx=0;exitDy=0;entryX=0;entryY=0.5;entryDx=0;entryDy=0;endArrow=none;startFill=0;" edge="1" parent="1" source="wz7HzAPbCdKOKnJgc9Ps-9" target="wz7HzAPbCdKOKnJgc9Ps-17">
          <mxGeometry relative="1" as="geometry">
            <mxPoint x="490" y="180" as="sourcePoint" />
            <mxPoint x="610" y="140" as="targetPoint" />
          </mxGeometry>
        </mxCell>
        <mxCell id="wz7HzAPbCdKOKnJgc9Ps-40" style="rounded=0;orthogonalLoop=1;jettySize=auto;html=1;exitX=1;exitY=0.5;exitDx=0;exitDy=0;entryX=0;entryY=0.5;entryDx=0;entryDy=0;endArrow=none;startFill=0;" edge="1" parent="1" source="wz7HzAPbCdKOKnJgc9Ps-9" target="wz7HzAPbCdKOKnJgc9Ps-18">
          <mxGeometry relative="1" as="geometry">
            <mxPoint x="410" y="190" as="sourcePoint" />
            <mxPoint x="530" y="310" as="targetPoint" />
          </mxGeometry>
        </mxCell>
        <mxCell id="wz7HzAPbCdKOKnJgc9Ps-41" style="rounded=0;orthogonalLoop=1;jettySize=auto;html=1;exitX=1;exitY=0.5;exitDx=0;exitDy=0;entryX=0;entryY=0.5;entryDx=0;entryDy=0;endArrow=none;startFill=0;" edge="1" parent="1" source="wz7HzAPbCdKOKnJgc9Ps-14" target="wz7HzAPbCdKOKnJgc9Ps-17">
          <mxGeometry relative="1" as="geometry">
            <mxPoint x="410" y="190" as="sourcePoint" />
            <mxPoint x="530" y="390" as="targetPoint" />
          </mxGeometry>
        </mxCell>
        <mxCell id="wz7HzAPbCdKOKnJgc9Ps-42" style="rounded=0;orthogonalLoop=1;jettySize=auto;html=1;exitX=1;exitY=0.5;exitDx=0;exitDy=0;entryX=0;entryY=0.5;entryDx=0;entryDy=0;endArrow=none;startFill=0;" edge="1" parent="1" source="wz7HzAPbCdKOKnJgc9Ps-14" target="wz7HzAPbCdKOKnJgc9Ps-18">
          <mxGeometry relative="1" as="geometry">
            <mxPoint x="410" y="270" as="sourcePoint" />
            <mxPoint x="530" y="310" as="targetPoint" />
          </mxGeometry>
        </mxCell>
        <mxCell id="wz7HzAPbCdKOKnJgc9Ps-43" style="rounded=0;orthogonalLoop=1;jettySize=auto;html=1;exitX=1;exitY=0.5;exitDx=0;exitDy=0;entryX=0;entryY=0.5;entryDx=0;entryDy=0;endArrow=none;startFill=0;" edge="1" parent="1" source="wz7HzAPbCdKOKnJgc9Ps-13" target="wz7HzAPbCdKOKnJgc9Ps-17">
          <mxGeometry relative="1" as="geometry">
            <mxPoint x="410" y="270" as="sourcePoint" />
            <mxPoint x="530" y="390" as="targetPoint" />
          </mxGeometry>
        </mxCell>
        <mxCell id="wz7HzAPbCdKOKnJgc9Ps-44" style="rounded=0;orthogonalLoop=1;jettySize=auto;html=1;exitX=1;exitY=0.5;exitDx=0;exitDy=0;entryX=0;entryY=0.5;entryDx=0;entryDy=0;endArrow=none;startFill=0;" edge="1" parent="1" source="wz7HzAPbCdKOKnJgc9Ps-16" target="wz7HzAPbCdKOKnJgc9Ps-18">
          <mxGeometry relative="1" as="geometry">
            <mxPoint x="410" y="350" as="sourcePoint" />
            <mxPoint x="530" y="310" as="targetPoint" />
          </mxGeometry>
        </mxCell>
        <mxCell id="wz7HzAPbCdKOKnJgc9Ps-45" style="rounded=0;orthogonalLoop=1;jettySize=auto;html=1;exitX=1;exitY=0.5;exitDx=0;exitDy=0;entryX=0;entryY=0.5;entryDx=0;entryDy=0;endArrow=none;startFill=0;" edge="1" parent="1" source="wz7HzAPbCdKOKnJgc9Ps-16" target="wz7HzAPbCdKOKnJgc9Ps-17">
          <mxGeometry relative="1" as="geometry">
            <mxPoint x="410" y="430" as="sourcePoint" />
            <mxPoint x="530" y="390" as="targetPoint" />
          </mxGeometry>
        </mxCell>
        <mxCell id="wz7HzAPbCdKOKnJgc9Ps-46" style="rounded=0;orthogonalLoop=1;jettySize=auto;html=1;exitX=1;exitY=0.5;exitDx=0;exitDy=0;entryX=0;entryY=0.5;entryDx=0;entryDy=0;endArrow=none;startFill=0;" edge="1" parent="1" source="wz7HzAPbCdKOKnJgc9Ps-13" target="wz7HzAPbCdKOKnJgc9Ps-18">
          <mxGeometry relative="1" as="geometry">
            <mxPoint x="410" y="350" as="sourcePoint" />
            <mxPoint x="530" y="310" as="targetPoint" />
          </mxGeometry>
        </mxCell>
        <mxCell id="wz7HzAPbCdKOKnJgc9Ps-47" style="rounded=0;orthogonalLoop=1;jettySize=auto;html=1;exitX=1;exitY=0.5;exitDx=0;exitDy=0;entryX=0;entryY=0.5;entryDx=0;entryDy=0;endArrow=none;startFill=0;" edge="1" parent="1" source="wz7HzAPbCdKOKnJgc9Ps-15" target="wz7HzAPbCdKOKnJgc9Ps-18">
          <mxGeometry relative="1" as="geometry">
            <mxPoint x="420" y="360" as="sourcePoint" />
            <mxPoint x="540" y="320" as="targetPoint" />
          </mxGeometry>
        </mxCell>
        <mxCell id="wz7HzAPbCdKOKnJgc9Ps-48" style="rounded=0;orthogonalLoop=1;jettySize=auto;html=1;exitX=1;exitY=0.5;exitDx=0;exitDy=0;entryX=0;entryY=0.5;entryDx=0;entryDy=0;endArrow=none;startFill=0;" edge="1" parent="1" source="wz7HzAPbCdKOKnJgc9Ps-15" target="wz7HzAPbCdKOKnJgc9Ps-17">
          <mxGeometry relative="1" as="geometry">
            <mxPoint x="411" y="506" as="sourcePoint" />
            <mxPoint x="530" y="390" as="targetPoint" />
          </mxGeometry>
        </mxCell>
        <mxCell id="wz7HzAPbCdKOKnJgc9Ps-49" value="Shared Model 1" style="rounded=0;whiteSpace=wrap;html=1;rotation=-90;" vertex="1" parent="1">
          <mxGeometry x="-140" y="310" width="360" height="60" as="geometry" />
        </mxCell>
        <mxCell id="wz7HzAPbCdKOKnJgc9Ps-50" value="Party 1" style="rounded=0;whiteSpace=wrap;html=1;rotation=-90;strokeColor=#D6B656;strokeWidth=2;" vertex="1" parent="1">
          <mxGeometry x="60" y="230" width="115" height="60" as="geometry" />
        </mxCell>
        <mxCell id="wz7HzAPbCdKOKnJgc9Ps-52" value="Party 2" style="rounded=0;whiteSpace=wrap;html=1;rotation=-90;" vertex="1" parent="1">
          <mxGeometry x="60" y="390" width="115" height="60" as="geometry" />
        </mxCell>
        <mxCell id="wz7HzAPbCdKOKnJgc9Ps-53" value="" style="ellipse;whiteSpace=wrap;html=1;aspect=fixed;strokeColor=#4D4D4D;fillColor=#4D4D4D;" vertex="1" parent="1">
          <mxGeometry x="160" y="800" width="40" height="40" as="geometry" />
        </mxCell>
        <mxCell id="wz7HzAPbCdKOKnJgc9Ps-54" style="rounded=0;orthogonalLoop=1;jettySize=auto;html=1;exitX=1;exitY=0.5;exitDx=0;exitDy=0;entryX=0;entryY=0.5;entryDx=0;entryDy=0;endArrow=none;startFill=0;" edge="1" parent="1" source="wz7HzAPbCdKOKnJgc9Ps-55" target="wz7HzAPbCdKOKnJgc9Ps-58">
          <mxGeometry relative="1" as="geometry" />
        </mxCell>
        <mxCell id="wz7HzAPbCdKOKnJgc9Ps-55" value="" style="ellipse;whiteSpace=wrap;html=1;aspect=fixed;strokeColor=#3333FF;fillColor=#3333FF;" vertex="1" parent="1">
          <mxGeometry x="160" y="640" width="40" height="40" as="geometry" />
        </mxCell>
        <mxCell id="wz7HzAPbCdKOKnJgc9Ps-56" value="" style="ellipse;whiteSpace=wrap;html=1;aspect=fixed;strokeColor=#3333FF;fillColor=#3333FF;" vertex="1" parent="1">
          <mxGeometry x="160" y="720" width="40" height="40" as="geometry" />
        </mxCell>
        <mxCell id="wz7HzAPbCdKOKnJgc9Ps-57" value="" style="ellipse;whiteSpace=wrap;html=1;aspect=fixed;strokeColor=#4D4D4D;fillColor=#4D4D4D;" vertex="1" parent="1">
          <mxGeometry x="160" y="880" width="40" height="40" as="geometry" />
        </mxCell>
        <mxCell id="wz7HzAPbCdKOKnJgc9Ps-58" value="" style="ellipse;whiteSpace=wrap;html=1;aspect=fixed;strokeColor=#3333FF;fillColor=#3333FF;" vertex="1" parent="1">
          <mxGeometry x="360" y="600" width="40" height="40" as="geometry" />
        </mxCell>
        <mxCell id="wz7HzAPbCdKOKnJgc9Ps-59" value="" style="ellipse;whiteSpace=wrap;html=1;aspect=fixed;strokeColor=#3333FF;fillColor=#3333FF;" vertex="1" parent="1">
          <mxGeometry x="360" y="760" width="40" height="40" as="geometry" />
        </mxCell>
        <mxCell id="wz7HzAPbCdKOKnJgc9Ps-60" value="" style="ellipse;whiteSpace=wrap;html=1;aspect=fixed;strokeColor=#3333FF;fillColor=#3333FF;" vertex="1" parent="1">
          <mxGeometry x="360" y="680" width="40" height="40" as="geometry" />
        </mxCell>
        <mxCell id="wz7HzAPbCdKOKnJgc9Ps-61" value="" style="ellipse;whiteSpace=wrap;html=1;aspect=fixed;strokeColor=#4D4D4D;fillColor=#4D4D4D;" vertex="1" parent="1">
          <mxGeometry x="360" y="920" width="40" height="40" as="geometry" />
        </mxCell>
        <mxCell id="wz7HzAPbCdKOKnJgc9Ps-62" value="" style="ellipse;whiteSpace=wrap;html=1;aspect=fixed;strokeColor=#4D4D4D;fillColor=#4D4D4D;" vertex="1" parent="1">
          <mxGeometry x="360" y="840" width="40" height="40" as="geometry" />
        </mxCell>
        <mxCell id="wz7HzAPbCdKOKnJgc9Ps-63" value="" style="ellipse;whiteSpace=wrap;html=1;aspect=fixed;strokeColor=#CC0000;fillColor=#CC0000;" vertex="1" parent="1">
          <mxGeometry x="560" y="760" width="40" height="40" as="geometry" />
        </mxCell>
        <mxCell id="wz7HzAPbCdKOKnJgc9Ps-64" value="" style="ellipse;whiteSpace=wrap;html=1;aspect=fixed;strokeColor=#CC0000;fillColor=#CC0000;" vertex="1" parent="1">
          <mxGeometry x="560" y="840" width="40" height="40" as="geometry" />
        </mxCell>
        <mxCell id="wz7HzAPbCdKOKnJgc9Ps-65" style="rounded=0;orthogonalLoop=1;jettySize=auto;html=1;exitX=1;exitY=0.5;exitDx=0;exitDy=0;entryX=0;entryY=0.5;entryDx=0;entryDy=0;endArrow=none;startFill=0;" edge="1" parent="1" source="wz7HzAPbCdKOKnJgc9Ps-55" target="wz7HzAPbCdKOKnJgc9Ps-60">
          <mxGeometry relative="1" as="geometry">
            <mxPoint x="210" y="670" as="sourcePoint" />
            <mxPoint x="330" y="630" as="targetPoint" />
          </mxGeometry>
        </mxCell>
        <mxCell id="wz7HzAPbCdKOKnJgc9Ps-66" style="rounded=0;orthogonalLoop=1;jettySize=auto;html=1;exitX=1;exitY=0.5;exitDx=0;exitDy=0;entryX=0;entryY=0.5;entryDx=0;entryDy=0;endArrow=none;startFill=0;" edge="1" parent="1" source="wz7HzAPbCdKOKnJgc9Ps-55" target="wz7HzAPbCdKOKnJgc9Ps-59">
          <mxGeometry relative="1" as="geometry">
            <mxPoint x="210" y="670" as="sourcePoint" />
            <mxPoint x="330" y="710" as="targetPoint" />
          </mxGeometry>
        </mxCell>
        <mxCell id="wz7HzAPbCdKOKnJgc9Ps-67" style="rounded=0;orthogonalLoop=1;jettySize=auto;html=1;exitX=1;exitY=0.5;exitDx=0;exitDy=0;endArrow=none;startFill=0;entryX=0;entryY=0.5;entryDx=0;entryDy=0;" edge="1" parent="1" source="wz7HzAPbCdKOKnJgc9Ps-56" target="wz7HzAPbCdKOKnJgc9Ps-58">
          <mxGeometry relative="1" as="geometry">
            <mxPoint x="210" y="670" as="sourcePoint" />
            <mxPoint x="320" y="620" as="targetPoint" />
          </mxGeometry>
        </mxCell>
        <mxCell id="wz7HzAPbCdKOKnJgc9Ps-68" style="rounded=0;orthogonalLoop=1;jettySize=auto;html=1;exitX=1;exitY=0.5;exitDx=0;exitDy=0;entryX=0;entryY=0.5;entryDx=0;entryDy=0;endArrow=none;startFill=0;" edge="1" parent="1" source="wz7HzAPbCdKOKnJgc9Ps-55" target="wz7HzAPbCdKOKnJgc9Ps-61">
          <mxGeometry relative="1" as="geometry">
            <mxPoint x="220" y="680" as="sourcePoint" />
            <mxPoint x="340" y="800" as="targetPoint" />
          </mxGeometry>
        </mxCell>
        <mxCell id="wz7HzAPbCdKOKnJgc9Ps-69" style="rounded=0;orthogonalLoop=1;jettySize=auto;html=1;exitX=1;exitY=0.5;exitDx=0;exitDy=0;entryX=0;entryY=0.5;entryDx=0;entryDy=0;endArrow=none;startFill=0;" edge="1" parent="1" source="wz7HzAPbCdKOKnJgc9Ps-55" target="wz7HzAPbCdKOKnJgc9Ps-62">
          <mxGeometry relative="1" as="geometry">
            <mxPoint x="230" y="690" as="sourcePoint" />
            <mxPoint x="350" y="810" as="targetPoint" />
          </mxGeometry>
        </mxCell>
        <mxCell id="wz7HzAPbCdKOKnJgc9Ps-70" style="rounded=0;orthogonalLoop=1;jettySize=auto;html=1;exitX=0;exitY=0.5;exitDx=0;exitDy=0;entryX=1;entryY=0.5;entryDx=0;entryDy=0;endArrow=none;startFill=0;" edge="1" parent="1" source="wz7HzAPbCdKOKnJgc9Ps-60" target="wz7HzAPbCdKOKnJgc9Ps-53">
          <mxGeometry relative="1" as="geometry">
            <mxPoint x="240" y="700" as="sourcePoint" />
            <mxPoint x="360" y="820" as="targetPoint" />
          </mxGeometry>
        </mxCell>
        <mxCell id="wz7HzAPbCdKOKnJgc9Ps-71" style="rounded=0;orthogonalLoop=1;jettySize=auto;html=1;exitX=0;exitY=0.5;exitDx=0;exitDy=0;entryX=1;entryY=0.5;entryDx=0;entryDy=0;endArrow=none;startFill=0;" edge="1" parent="1" source="wz7HzAPbCdKOKnJgc9Ps-58" target="wz7HzAPbCdKOKnJgc9Ps-57">
          <mxGeometry relative="1" as="geometry">
            <mxPoint x="250" y="710" as="sourcePoint" />
            <mxPoint x="370" y="830" as="targetPoint" />
          </mxGeometry>
        </mxCell>
        <mxCell id="wz7HzAPbCdKOKnJgc9Ps-72" style="rounded=0;orthogonalLoop=1;jettySize=auto;html=1;exitX=0;exitY=0.5;exitDx=0;exitDy=0;entryX=1;entryY=0.5;entryDx=0;entryDy=0;endArrow=none;startFill=0;" edge="1" parent="1" source="wz7HzAPbCdKOKnJgc9Ps-60" target="wz7HzAPbCdKOKnJgc9Ps-57">
          <mxGeometry relative="1" as="geometry">
            <mxPoint x="330" y="630" as="sourcePoint" />
            <mxPoint x="210" y="910" as="targetPoint" />
          </mxGeometry>
        </mxCell>
        <mxCell id="wz7HzAPbCdKOKnJgc9Ps-73" style="rounded=0;orthogonalLoop=1;jettySize=auto;html=1;entryX=1;entryY=0.5;entryDx=0;entryDy=0;endArrow=none;startFill=0;exitX=0;exitY=0.5;exitDx=0;exitDy=0;" edge="1" parent="1" target="wz7HzAPbCdKOKnJgc9Ps-57" source="wz7HzAPbCdKOKnJgc9Ps-61">
          <mxGeometry relative="1" as="geometry">
            <mxPoint x="320" y="940" as="sourcePoint" />
            <mxPoint x="210" y="910" as="targetPoint" />
          </mxGeometry>
        </mxCell>
        <mxCell id="wz7HzAPbCdKOKnJgc9Ps-74" style="rounded=0;orthogonalLoop=1;jettySize=auto;html=1;exitX=0;exitY=0.5;exitDx=0;exitDy=0;endArrow=none;startFill=0;entryX=1;entryY=0.5;entryDx=0;entryDy=0;" edge="1" parent="1" source="wz7HzAPbCdKOKnJgc9Ps-59" target="wz7HzAPbCdKOKnJgc9Ps-57">
          <mxGeometry relative="1" as="geometry">
            <mxPoint x="340" y="720" as="sourcePoint" />
            <mxPoint x="200" y="900" as="targetPoint" />
          </mxGeometry>
        </mxCell>
        <mxCell id="wz7HzAPbCdKOKnJgc9Ps-75" style="rounded=0;orthogonalLoop=1;jettySize=auto;html=1;exitX=0;exitY=0.5;exitDx=0;exitDy=0;entryX=1;entryY=0.5;entryDx=0;entryDy=0;endArrow=none;startFill=0;" edge="1" parent="1" source="wz7HzAPbCdKOKnJgc9Ps-59" target="wz7HzAPbCdKOKnJgc9Ps-53">
          <mxGeometry relative="1" as="geometry">
            <mxPoint x="330" y="710" as="sourcePoint" />
            <mxPoint x="210" y="830" as="targetPoint" />
          </mxGeometry>
        </mxCell>
        <mxCell id="wz7HzAPbCdKOKnJgc9Ps-76" style="rounded=0;orthogonalLoop=1;jettySize=auto;html=1;exitX=0;exitY=0.5;exitDx=0;exitDy=0;entryX=1;entryY=0.5;entryDx=0;entryDy=0;endArrow=none;startFill=0;" edge="1" parent="1" source="wz7HzAPbCdKOKnJgc9Ps-58" target="wz7HzAPbCdKOKnJgc9Ps-53">
          <mxGeometry relative="1" as="geometry">
            <mxPoint x="340" y="720" as="sourcePoint" />
            <mxPoint x="220" y="840" as="targetPoint" />
          </mxGeometry>
        </mxCell>
        <mxCell id="wz7HzAPbCdKOKnJgc9Ps-77" style="rounded=0;orthogonalLoop=1;jettySize=auto;html=1;exitX=1;exitY=0.5;exitDx=0;exitDy=0;endArrow=none;startFill=0;entryX=0;entryY=0.5;entryDx=0;entryDy=0;" edge="1" parent="1" source="wz7HzAPbCdKOKnJgc9Ps-56" target="wz7HzAPbCdKOKnJgc9Ps-60">
          <mxGeometry relative="1" as="geometry">
            <mxPoint x="210" y="750" as="sourcePoint" />
            <mxPoint x="330" y="630" as="targetPoint" />
          </mxGeometry>
        </mxCell>
        <mxCell id="wz7HzAPbCdKOKnJgc9Ps-78" style="rounded=0;orthogonalLoop=1;jettySize=auto;html=1;exitX=1;exitY=0.5;exitDx=0;exitDy=0;endArrow=none;startFill=0;entryX=0;entryY=0.5;entryDx=0;entryDy=0;" edge="1" parent="1" source="wz7HzAPbCdKOKnJgc9Ps-56" target="wz7HzAPbCdKOKnJgc9Ps-59">
          <mxGeometry relative="1" as="geometry">
            <mxPoint x="210" y="750" as="sourcePoint" />
            <mxPoint x="330" y="710" as="targetPoint" />
          </mxGeometry>
        </mxCell>
        <mxCell id="wz7HzAPbCdKOKnJgc9Ps-79" style="rounded=0;orthogonalLoop=1;jettySize=auto;html=1;exitX=1;exitY=0.5;exitDx=0;exitDy=0;endArrow=none;startFill=0;entryX=0;entryY=0.5;entryDx=0;entryDy=0;" edge="1" parent="1" source="wz7HzAPbCdKOKnJgc9Ps-56" target="wz7HzAPbCdKOKnJgc9Ps-62">
          <mxGeometry relative="1" as="geometry">
            <mxPoint x="210" y="750" as="sourcePoint" />
            <mxPoint x="330" y="790" as="targetPoint" />
          </mxGeometry>
        </mxCell>
        <mxCell id="wz7HzAPbCdKOKnJgc9Ps-80" style="rounded=0;orthogonalLoop=1;jettySize=auto;html=1;exitX=1;exitY=0.5;exitDx=0;exitDy=0;endArrow=none;startFill=0;entryX=0;entryY=0.5;entryDx=0;entryDy=0;" edge="1" parent="1" source="wz7HzAPbCdKOKnJgc9Ps-56" target="wz7HzAPbCdKOKnJgc9Ps-61">
          <mxGeometry relative="1" as="geometry">
            <mxPoint x="210" y="750" as="sourcePoint" />
            <mxPoint x="330" y="870" as="targetPoint" />
          </mxGeometry>
        </mxCell>
        <mxCell id="wz7HzAPbCdKOKnJgc9Ps-81" style="rounded=0;orthogonalLoop=1;jettySize=auto;html=1;endArrow=none;startFill=0;entryX=1;entryY=0.5;entryDx=0;entryDy=0;exitX=0;exitY=0.5;exitDx=0;exitDy=0;" edge="1" parent="1" source="wz7HzAPbCdKOKnJgc9Ps-62" target="wz7HzAPbCdKOKnJgc9Ps-57">
          <mxGeometry relative="1" as="geometry">
            <mxPoint x="330" y="950" as="sourcePoint" />
            <mxPoint x="200" y="900" as="targetPoint" />
          </mxGeometry>
        </mxCell>
        <mxCell id="wz7HzAPbCdKOKnJgc9Ps-82" style="rounded=0;orthogonalLoop=1;jettySize=auto;html=1;exitX=0;exitY=0.5;exitDx=0;exitDy=0;entryX=1;entryY=0.5;entryDx=0;entryDy=0;endArrow=none;startFill=0;" edge="1" parent="1" source="wz7HzAPbCdKOKnJgc9Ps-62" target="wz7HzAPbCdKOKnJgc9Ps-53">
          <mxGeometry relative="1" as="geometry">
            <mxPoint x="330" y="790" as="sourcePoint" />
            <mxPoint x="210" y="830" as="targetPoint" />
          </mxGeometry>
        </mxCell>
        <mxCell id="wz7HzAPbCdKOKnJgc9Ps-83" style="rounded=0;orthogonalLoop=1;jettySize=auto;html=1;exitX=0;exitY=0.5;exitDx=0;exitDy=0;entryX=1;entryY=0.5;entryDx=0;entryDy=0;endArrow=none;startFill=0;" edge="1" parent="1" source="wz7HzAPbCdKOKnJgc9Ps-61" target="wz7HzAPbCdKOKnJgc9Ps-53">
          <mxGeometry relative="1" as="geometry">
            <mxPoint x="330" y="870" as="sourcePoint" />
            <mxPoint x="210" y="830" as="targetPoint" />
          </mxGeometry>
        </mxCell>
        <mxCell id="wz7HzAPbCdKOKnJgc9Ps-84" style="rounded=0;orthogonalLoop=1;jettySize=auto;html=1;exitX=1;exitY=0.5;exitDx=0;exitDy=0;entryX=0;entryY=0.5;entryDx=0;entryDy=0;endArrow=none;startFill=0;" edge="1" parent="1" source="wz7HzAPbCdKOKnJgc9Ps-58" target="wz7HzAPbCdKOKnJgc9Ps-63">
          <mxGeometry relative="1" as="geometry">
            <mxPoint x="490" y="620" as="sourcePoint" />
            <mxPoint x="610" y="580" as="targetPoint" />
          </mxGeometry>
        </mxCell>
        <mxCell id="wz7HzAPbCdKOKnJgc9Ps-85" style="rounded=0;orthogonalLoop=1;jettySize=auto;html=1;exitX=1;exitY=0.5;exitDx=0;exitDy=0;entryX=0;entryY=0.5;entryDx=0;entryDy=0;endArrow=none;startFill=0;" edge="1" parent="1" source="wz7HzAPbCdKOKnJgc9Ps-58" target="wz7HzAPbCdKOKnJgc9Ps-64">
          <mxGeometry relative="1" as="geometry">
            <mxPoint x="410" y="630" as="sourcePoint" />
            <mxPoint x="530" y="750" as="targetPoint" />
          </mxGeometry>
        </mxCell>
        <mxCell id="wz7HzAPbCdKOKnJgc9Ps-86" style="rounded=0;orthogonalLoop=1;jettySize=auto;html=1;exitX=1;exitY=0.5;exitDx=0;exitDy=0;entryX=0;entryY=0.5;entryDx=0;entryDy=0;endArrow=none;startFill=0;" edge="1" parent="1" source="wz7HzAPbCdKOKnJgc9Ps-60" target="wz7HzAPbCdKOKnJgc9Ps-63">
          <mxGeometry relative="1" as="geometry">
            <mxPoint x="410" y="630" as="sourcePoint" />
            <mxPoint x="530" y="830" as="targetPoint" />
          </mxGeometry>
        </mxCell>
        <mxCell id="wz7HzAPbCdKOKnJgc9Ps-87" style="rounded=0;orthogonalLoop=1;jettySize=auto;html=1;exitX=1;exitY=0.5;exitDx=0;exitDy=0;entryX=0;entryY=0.5;entryDx=0;entryDy=0;endArrow=none;startFill=0;" edge="1" parent="1" source="wz7HzAPbCdKOKnJgc9Ps-60" target="wz7HzAPbCdKOKnJgc9Ps-64">
          <mxGeometry relative="1" as="geometry">
            <mxPoint x="410" y="710" as="sourcePoint" />
            <mxPoint x="530" y="750" as="targetPoint" />
          </mxGeometry>
        </mxCell>
        <mxCell id="wz7HzAPbCdKOKnJgc9Ps-88" style="rounded=0;orthogonalLoop=1;jettySize=auto;html=1;exitX=1;exitY=0.5;exitDx=0;exitDy=0;entryX=0;entryY=0.5;entryDx=0;entryDy=0;endArrow=none;startFill=0;" edge="1" parent="1" source="wz7HzAPbCdKOKnJgc9Ps-59" target="wz7HzAPbCdKOKnJgc9Ps-63">
          <mxGeometry relative="1" as="geometry">
            <mxPoint x="410" y="710" as="sourcePoint" />
            <mxPoint x="530" y="830" as="targetPoint" />
          </mxGeometry>
        </mxCell>
        <mxCell id="wz7HzAPbCdKOKnJgc9Ps-89" style="rounded=0;orthogonalLoop=1;jettySize=auto;html=1;exitX=1;exitY=0.5;exitDx=0;exitDy=0;entryX=0;entryY=0.5;entryDx=0;entryDy=0;endArrow=none;startFill=0;" edge="1" parent="1" source="wz7HzAPbCdKOKnJgc9Ps-62" target="wz7HzAPbCdKOKnJgc9Ps-64">
          <mxGeometry relative="1" as="geometry">
            <mxPoint x="410" y="790" as="sourcePoint" />
            <mxPoint x="530" y="750" as="targetPoint" />
          </mxGeometry>
        </mxCell>
        <mxCell id="wz7HzAPbCdKOKnJgc9Ps-90" style="rounded=0;orthogonalLoop=1;jettySize=auto;html=1;exitX=1;exitY=0.5;exitDx=0;exitDy=0;entryX=0;entryY=0.5;entryDx=0;entryDy=0;endArrow=none;startFill=0;" edge="1" parent="1" source="wz7HzAPbCdKOKnJgc9Ps-62" target="wz7HzAPbCdKOKnJgc9Ps-63">
          <mxGeometry relative="1" as="geometry">
            <mxPoint x="410" y="870" as="sourcePoint" />
            <mxPoint x="530" y="830" as="targetPoint" />
          </mxGeometry>
        </mxCell>
        <mxCell id="wz7HzAPbCdKOKnJgc9Ps-91" style="rounded=0;orthogonalLoop=1;jettySize=auto;html=1;exitX=1;exitY=0.5;exitDx=0;exitDy=0;entryX=0;entryY=0.5;entryDx=0;entryDy=0;endArrow=none;startFill=0;" edge="1" parent="1" source="wz7HzAPbCdKOKnJgc9Ps-59" target="wz7HzAPbCdKOKnJgc9Ps-64">
          <mxGeometry relative="1" as="geometry">
            <mxPoint x="410" y="790" as="sourcePoint" />
            <mxPoint x="530" y="750" as="targetPoint" />
          </mxGeometry>
        </mxCell>
        <mxCell id="wz7HzAPbCdKOKnJgc9Ps-92" style="rounded=0;orthogonalLoop=1;jettySize=auto;html=1;exitX=1;exitY=0.5;exitDx=0;exitDy=0;entryX=0;entryY=0.5;entryDx=0;entryDy=0;endArrow=none;startFill=0;" edge="1" parent="1" source="wz7HzAPbCdKOKnJgc9Ps-61" target="wz7HzAPbCdKOKnJgc9Ps-64">
          <mxGeometry relative="1" as="geometry">
            <mxPoint x="420" y="800" as="sourcePoint" />
            <mxPoint x="540" y="760" as="targetPoint" />
          </mxGeometry>
        </mxCell>
        <mxCell id="wz7HzAPbCdKOKnJgc9Ps-93" style="rounded=0;orthogonalLoop=1;jettySize=auto;html=1;exitX=1;exitY=0.5;exitDx=0;exitDy=0;entryX=0;entryY=0.5;entryDx=0;entryDy=0;endArrow=none;startFill=0;" edge="1" parent="1" source="wz7HzAPbCdKOKnJgc9Ps-61" target="wz7HzAPbCdKOKnJgc9Ps-63">
          <mxGeometry relative="1" as="geometry">
            <mxPoint x="411" y="946" as="sourcePoint" />
            <mxPoint x="530" y="830" as="targetPoint" />
          </mxGeometry>
        </mxCell>
        <mxCell id="wz7HzAPbCdKOKnJgc9Ps-94" value="Shared Model 2" style="rounded=0;whiteSpace=wrap;html=1;rotation=-90;" vertex="1" parent="1">
          <mxGeometry x="-180" y="790" width="440" height="60" as="geometry" />
        </mxCell>
        <mxCell id="wz7HzAPbCdKOKnJgc9Ps-95" value="Party 1" style="rounded=0;whiteSpace=wrap;html=1;rotation=-90;" vertex="1" parent="1">
          <mxGeometry x="60" y="670" width="115" height="60" as="geometry" />
        </mxCell>
        <mxCell id="wz7HzAPbCdKOKnJgc9Ps-96" value="Party 3" style="rounded=0;whiteSpace=wrap;html=1;rotation=-90;" vertex="1" parent="1">
          <mxGeometry x="20" y="870" width="195" height="60" as="geometry" />
        </mxCell>
        <mxCell id="wz7HzAPbCdKOKnJgc9Ps-98" value="" style="ellipse;whiteSpace=wrap;html=1;aspect=fixed;strokeColor=#4D4D4D;fillColor=#4D4D4D;" vertex="1" parent="1">
          <mxGeometry x="360" y="1000" width="40" height="40" as="geometry" />
        </mxCell>
        <mxCell id="wz7HzAPbCdKOKnJgc9Ps-99" value="" style="ellipse;whiteSpace=wrap;html=1;aspect=fixed;strokeColor=#4D4D4D;fillColor=#4D4D4D;" vertex="1" parent="1">
          <mxGeometry x="160" y="960" width="40" height="40" as="geometry" />
        </mxCell>
        <mxCell id="wz7HzAPbCdKOKnJgc9Ps-100" style="rounded=0;orthogonalLoop=1;jettySize=auto;html=1;endArrow=none;startFill=0;entryX=1;entryY=0.5;entryDx=0;entryDy=0;exitX=0;exitY=0.5;exitDx=0;exitDy=0;" edge="1" parent="1" source="wz7HzAPbCdKOKnJgc9Ps-58" target="wz7HzAPbCdKOKnJgc9Ps-99">
          <mxGeometry relative="1" as="geometry">
            <mxPoint x="330" y="870" as="sourcePoint" />
            <mxPoint x="210" y="910" as="targetPoint" />
          </mxGeometry>
        </mxCell>
        <mxCell id="wz7HzAPbCdKOKnJgc9Ps-101" style="rounded=0;orthogonalLoop=1;jettySize=auto;html=1;endArrow=none;startFill=0;entryX=1;entryY=0.5;entryDx=0;entryDy=0;exitX=0;exitY=0.5;exitDx=0;exitDy=0;" edge="1" parent="1" source="wz7HzAPbCdKOKnJgc9Ps-60" target="wz7HzAPbCdKOKnJgc9Ps-99">
          <mxGeometry relative="1" as="geometry">
            <mxPoint x="330" y="630" as="sourcePoint" />
            <mxPoint x="210" y="990" as="targetPoint" />
          </mxGeometry>
        </mxCell>
        <mxCell id="wz7HzAPbCdKOKnJgc9Ps-102" style="rounded=0;orthogonalLoop=1;jettySize=auto;html=1;endArrow=none;startFill=0;entryX=1;entryY=0.5;entryDx=0;entryDy=0;exitX=0;exitY=0.5;exitDx=0;exitDy=0;" edge="1" parent="1" source="wz7HzAPbCdKOKnJgc9Ps-59" target="wz7HzAPbCdKOKnJgc9Ps-99">
          <mxGeometry relative="1" as="geometry">
            <mxPoint x="330" y="710" as="sourcePoint" />
            <mxPoint x="210" y="990" as="targetPoint" />
          </mxGeometry>
        </mxCell>
        <mxCell id="wz7HzAPbCdKOKnJgc9Ps-103" style="rounded=0;orthogonalLoop=1;jettySize=auto;html=1;endArrow=none;startFill=0;exitX=0;exitY=0.5;exitDx=0;exitDy=0;" edge="1" parent="1" source="wz7HzAPbCdKOKnJgc9Ps-62">
          <mxGeometry relative="1" as="geometry">
            <mxPoint x="330" y="790" as="sourcePoint" />
            <mxPoint x="200" y="980" as="targetPoint" />
          </mxGeometry>
        </mxCell>
        <mxCell id="wz7HzAPbCdKOKnJgc9Ps-104" style="rounded=0;orthogonalLoop=1;jettySize=auto;html=1;endArrow=none;startFill=0;exitX=0;exitY=0.5;exitDx=0;exitDy=0;entryX=1;entryY=0.5;entryDx=0;entryDy=0;" edge="1" parent="1" source="wz7HzAPbCdKOKnJgc9Ps-61" target="wz7HzAPbCdKOKnJgc9Ps-99">
          <mxGeometry relative="1" as="geometry">
            <mxPoint x="330" y="870" as="sourcePoint" />
            <mxPoint x="210" y="990" as="targetPoint" />
          </mxGeometry>
        </mxCell>
        <mxCell id="wz7HzAPbCdKOKnJgc9Ps-105" style="rounded=0;orthogonalLoop=1;jettySize=auto;html=1;endArrow=none;startFill=0;exitX=0;exitY=0.5;exitDx=0;exitDy=0;entryX=1;entryY=0.5;entryDx=0;entryDy=0;" edge="1" parent="1" source="wz7HzAPbCdKOKnJgc9Ps-98" target="wz7HzAPbCdKOKnJgc9Ps-99">
          <mxGeometry relative="1" as="geometry">
            <mxPoint x="330" y="950" as="sourcePoint" />
            <mxPoint x="210" y="990" as="targetPoint" />
          </mxGeometry>
        </mxCell>
        <mxCell id="wz7HzAPbCdKOKnJgc9Ps-106" style="rounded=0;orthogonalLoop=1;jettySize=auto;html=1;endArrow=none;startFill=0;exitX=0;exitY=0.5;exitDx=0;exitDy=0;entryX=1;entryY=0.5;entryDx=0;entryDy=0;" edge="1" parent="1" source="wz7HzAPbCdKOKnJgc9Ps-98" target="wz7HzAPbCdKOKnJgc9Ps-57">
          <mxGeometry relative="1" as="geometry">
            <mxPoint x="330" y="1030" as="sourcePoint" />
            <mxPoint x="210" y="990" as="targetPoint" />
          </mxGeometry>
        </mxCell>
        <mxCell id="wz7HzAPbCdKOKnJgc9Ps-107" style="rounded=0;orthogonalLoop=1;jettySize=auto;html=1;endArrow=none;startFill=0;exitX=0;exitY=0.5;exitDx=0;exitDy=0;entryX=1;entryY=0.5;entryDx=0;entryDy=0;" edge="1" parent="1" source="wz7HzAPbCdKOKnJgc9Ps-98" target="wz7HzAPbCdKOKnJgc9Ps-53">
          <mxGeometry relative="1" as="geometry">
            <mxPoint x="330" y="1030" as="sourcePoint" />
            <mxPoint x="210" y="910" as="targetPoint" />
          </mxGeometry>
        </mxCell>
        <mxCell id="wz7HzAPbCdKOKnJgc9Ps-108" style="rounded=0;orthogonalLoop=1;jettySize=auto;html=1;endArrow=none;startFill=0;exitX=0;exitY=0.5;exitDx=0;exitDy=0;entryX=1;entryY=0.5;entryDx=0;entryDy=0;" edge="1" parent="1" source="wz7HzAPbCdKOKnJgc9Ps-98" target="wz7HzAPbCdKOKnJgc9Ps-56">
          <mxGeometry relative="1" as="geometry">
            <mxPoint x="330" y="1030" as="sourcePoint" />
            <mxPoint x="210" y="830" as="targetPoint" />
          </mxGeometry>
        </mxCell>
        <mxCell id="wz7HzAPbCdKOKnJgc9Ps-109" style="rounded=0;orthogonalLoop=1;jettySize=auto;html=1;endArrow=none;startFill=0;exitX=0;exitY=0.5;exitDx=0;exitDy=0;entryX=1;entryY=0.5;entryDx=0;entryDy=0;" edge="1" parent="1" source="wz7HzAPbCdKOKnJgc9Ps-98" target="wz7HzAPbCdKOKnJgc9Ps-55">
          <mxGeometry relative="1" as="geometry">
            <mxPoint x="330" y="1030" as="sourcePoint" />
            <mxPoint x="210" y="750" as="targetPoint" />
          </mxGeometry>
        </mxCell>
        <mxCell id="wz7HzAPbCdKOKnJgc9Ps-110" style="rounded=0;orthogonalLoop=1;jettySize=auto;html=1;exitX=1;exitY=0.5;exitDx=0;exitDy=0;entryX=0;entryY=0.5;entryDx=0;entryDy=0;endArrow=none;startFill=0;" edge="1" parent="1" source="wz7HzAPbCdKOKnJgc9Ps-98" target="wz7HzAPbCdKOKnJgc9Ps-64">
          <mxGeometry relative="1" as="geometry">
            <mxPoint x="399.9999999999998" y="1020" as="sourcePoint" />
            <mxPoint x="530" y="830" as="targetPoint" />
          </mxGeometry>
        </mxCell>
        <mxCell id="wz7HzAPbCdKOKnJgc9Ps-111" style="rounded=0;orthogonalLoop=1;jettySize=auto;html=1;exitX=1;exitY=0.5;exitDx=0;exitDy=0;entryX=0;entryY=0.5;entryDx=0;entryDy=0;endArrow=none;startFill=0;" edge="1" parent="1" source="wz7HzAPbCdKOKnJgc9Ps-98" target="wz7HzAPbCdKOKnJgc9Ps-63">
          <mxGeometry relative="1" as="geometry">
            <mxPoint x="399.9999999999998" y="1020" as="sourcePoint" />
            <mxPoint x="530" y="830" as="targetPoint" />
          </mxGeometry>
        </mxCell>
        <mxCell id="wz7HzAPbCdKOKnJgc9Ps-112" value="" style="ellipse;whiteSpace=wrap;html=1;aspect=fixed;strokeColor=#99CCFF;fillColor=#99CCFF;" vertex="1" parent="1">
          <mxGeometry x="881" y="524" width="40" height="40" as="geometry" />
        </mxCell>
        <mxCell id="wz7HzAPbCdKOKnJgc9Ps-113" value="" style="ellipse;whiteSpace=wrap;html=1;aspect=fixed;strokeColor=#99CCFF;fillColor=#99CCFF;" vertex="1" parent="1">
          <mxGeometry x="881" y="604" width="40" height="40" as="geometry" />
        </mxCell>
        <mxCell id="wz7HzAPbCdKOKnJgc9Ps-114" value="" style="ellipse;whiteSpace=wrap;html=1;aspect=fixed;strokeColor=#99CCFF;fillColor=#99CCFF;" vertex="1" parent="1">
          <mxGeometry x="1041" y="444" width="40" height="40" as="geometry" />
        </mxCell>
        <mxCell id="wz7HzAPbCdKOKnJgc9Ps-115" value="" style="ellipse;whiteSpace=wrap;html=1;aspect=fixed;strokeColor=#99CCFF;fillColor=#99CCFF;" vertex="1" parent="1">
          <mxGeometry x="1041" y="684" width="40" height="40" as="geometry" />
        </mxCell>
        <mxCell id="wz7HzAPbCdKOKnJgc9Ps-116" value="" style="ellipse;whiteSpace=wrap;html=1;aspect=fixed;strokeColor=#99CCFF;fillColor=#99CCFF;" vertex="1" parent="1">
          <mxGeometry x="1041" y="604" width="40" height="40" as="geometry" />
        </mxCell>
        <mxCell id="wz7HzAPbCdKOKnJgc9Ps-117" value="" style="ellipse;whiteSpace=wrap;html=1;aspect=fixed;strokeColor=#99CCFF;fillColor=#99CCFF;" vertex="1" parent="1">
          <mxGeometry x="1041" y="524" width="40" height="40" as="geometry" />
        </mxCell>
        <mxCell id="wz7HzAPbCdKOKnJgc9Ps-118" value="" style="ellipse;whiteSpace=wrap;html=1;aspect=fixed;strokeColor=#FF3333;fillColor=#FF3333;" vertex="1" parent="1">
          <mxGeometry x="1201" y="524" width="40" height="40" as="geometry" />
        </mxCell>
        <mxCell id="wz7HzAPbCdKOKnJgc9Ps-119" value="" style="ellipse;whiteSpace=wrap;html=1;aspect=fixed;strokeColor=#FF3333;fillColor=#FF3333;" vertex="1" parent="1">
          <mxGeometry x="1201" y="604" width="40" height="40" as="geometry" />
        </mxCell>
        <mxCell id="wz7HzAPbCdKOKnJgc9Ps-120" style="rounded=0;orthogonalLoop=1;jettySize=auto;html=1;exitX=1;exitY=0.5;exitDx=0;exitDy=0;entryX=0;entryY=0.5;entryDx=0;entryDy=0;endArrow=none;startFill=0;" edge="1" parent="1" source="wz7HzAPbCdKOKnJgc9Ps-112" target="wz7HzAPbCdKOKnJgc9Ps-114">
          <mxGeometry relative="1" as="geometry">
            <mxPoint x="951" y="598" as="sourcePoint" />
            <mxPoint x="1071" y="758" as="targetPoint" />
          </mxGeometry>
        </mxCell>
        <mxCell id="wz7HzAPbCdKOKnJgc9Ps-121" style="rounded=0;orthogonalLoop=1;jettySize=auto;html=1;exitX=1;exitY=0.5;exitDx=0;exitDy=0;entryX=0;entryY=0.5;entryDx=0;entryDy=0;endArrow=none;startFill=0;" edge="1" parent="1" source="wz7HzAPbCdKOKnJgc9Ps-113" target="wz7HzAPbCdKOKnJgc9Ps-114">
          <mxGeometry relative="1" as="geometry">
            <mxPoint x="931" y="554" as="sourcePoint" />
            <mxPoint x="1051" y="478" as="targetPoint" />
          </mxGeometry>
        </mxCell>
        <mxCell id="wz7HzAPbCdKOKnJgc9Ps-122" style="rounded=0;orthogonalLoop=1;jettySize=auto;html=1;exitX=1;exitY=0.5;exitDx=0;exitDy=0;entryX=0;entryY=0.5;entryDx=0;entryDy=0;endArrow=none;startFill=0;" edge="1" parent="1" source="wz7HzAPbCdKOKnJgc9Ps-112" target="wz7HzAPbCdKOKnJgc9Ps-117">
          <mxGeometry relative="1" as="geometry">
            <mxPoint x="931" y="634" as="sourcePoint" />
            <mxPoint x="1051" y="478" as="targetPoint" />
          </mxGeometry>
        </mxCell>
        <mxCell id="wz7HzAPbCdKOKnJgc9Ps-123" style="rounded=0;orthogonalLoop=1;jettySize=auto;html=1;exitX=1;exitY=0.5;exitDx=0;exitDy=0;entryX=0;entryY=0.5;entryDx=0;entryDy=0;endArrow=none;startFill=0;" edge="1" parent="1" source="wz7HzAPbCdKOKnJgc9Ps-113" target="wz7HzAPbCdKOKnJgc9Ps-117">
          <mxGeometry relative="1" as="geometry">
            <mxPoint x="931" y="554" as="sourcePoint" />
            <mxPoint x="1051" y="558" as="targetPoint" />
          </mxGeometry>
        </mxCell>
        <mxCell id="wz7HzAPbCdKOKnJgc9Ps-124" style="rounded=0;orthogonalLoop=1;jettySize=auto;html=1;exitX=1;exitY=0.5;exitDx=0;exitDy=0;entryX=0;entryY=0.5;entryDx=0;entryDy=0;endArrow=none;startFill=0;" edge="1" parent="1" source="wz7HzAPbCdKOKnJgc9Ps-112" target="wz7HzAPbCdKOKnJgc9Ps-116">
          <mxGeometry relative="1" as="geometry">
            <mxPoint x="941" y="564" as="sourcePoint" />
            <mxPoint x="1061" y="568" as="targetPoint" />
          </mxGeometry>
        </mxCell>
        <mxCell id="wz7HzAPbCdKOKnJgc9Ps-125" style="rounded=0;orthogonalLoop=1;jettySize=auto;html=1;exitX=1;exitY=0.5;exitDx=0;exitDy=0;entryX=0;entryY=0.5;entryDx=0;entryDy=0;endArrow=none;startFill=0;" edge="1" parent="1" source="wz7HzAPbCdKOKnJgc9Ps-112" target="wz7HzAPbCdKOKnJgc9Ps-115">
          <mxGeometry relative="1" as="geometry">
            <mxPoint x="931" y="554" as="sourcePoint" />
            <mxPoint x="1051" y="628" as="targetPoint" />
          </mxGeometry>
        </mxCell>
        <mxCell id="wz7HzAPbCdKOKnJgc9Ps-126" style="rounded=0;orthogonalLoop=1;jettySize=auto;html=1;exitX=1;exitY=0.5;exitDx=0;exitDy=0;entryX=0;entryY=0.5;entryDx=0;entryDy=0;endArrow=none;startFill=0;" edge="1" parent="1" source="wz7HzAPbCdKOKnJgc9Ps-113" target="wz7HzAPbCdKOKnJgc9Ps-116">
          <mxGeometry relative="1" as="geometry">
            <mxPoint x="941" y="564" as="sourcePoint" />
            <mxPoint x="1061" y="638" as="targetPoint" />
          </mxGeometry>
        </mxCell>
        <mxCell id="wz7HzAPbCdKOKnJgc9Ps-127" style="rounded=0;orthogonalLoop=1;jettySize=auto;html=1;exitX=1;exitY=0.5;exitDx=0;exitDy=0;entryX=0;entryY=0.5;entryDx=0;entryDy=0;endArrow=none;startFill=0;" edge="1" parent="1" source="wz7HzAPbCdKOKnJgc9Ps-113" target="wz7HzAPbCdKOKnJgc9Ps-115">
          <mxGeometry relative="1" as="geometry">
            <mxPoint x="931" y="634" as="sourcePoint" />
            <mxPoint x="1051" y="628" as="targetPoint" />
          </mxGeometry>
        </mxCell>
        <mxCell id="wz7HzAPbCdKOKnJgc9Ps-128" style="rounded=0;orthogonalLoop=1;jettySize=auto;html=1;exitX=1;exitY=0.5;exitDx=0;exitDy=0;entryX=0;entryY=0.5;entryDx=0;entryDy=0;endArrow=none;startFill=0;" edge="1" parent="1" source="wz7HzAPbCdKOKnJgc9Ps-114" target="wz7HzAPbCdKOKnJgc9Ps-118">
          <mxGeometry relative="1" as="geometry">
            <mxPoint x="1141" y="467" as="sourcePoint" />
            <mxPoint x="1261" y="461" as="targetPoint" />
          </mxGeometry>
        </mxCell>
        <mxCell id="wz7HzAPbCdKOKnJgc9Ps-129" style="rounded=0;orthogonalLoop=1;jettySize=auto;html=1;exitX=1;exitY=0.5;exitDx=0;exitDy=0;entryX=0;entryY=0.5;entryDx=0;entryDy=0;endArrow=none;startFill=0;" edge="1" parent="1" source="wz7HzAPbCdKOKnJgc9Ps-114" target="wz7HzAPbCdKOKnJgc9Ps-119">
          <mxGeometry relative="1" as="geometry">
            <mxPoint x="1091" y="478" as="sourcePoint" />
            <mxPoint x="1211" y="554" as="targetPoint" />
          </mxGeometry>
        </mxCell>
        <mxCell id="wz7HzAPbCdKOKnJgc9Ps-130" style="rounded=0;orthogonalLoop=1;jettySize=auto;html=1;exitX=1;exitY=0.5;exitDx=0;exitDy=0;entryX=0;entryY=0.5;entryDx=0;entryDy=0;endArrow=none;startFill=0;" edge="1" parent="1" source="wz7HzAPbCdKOKnJgc9Ps-117" target="wz7HzAPbCdKOKnJgc9Ps-118">
          <mxGeometry relative="1" as="geometry">
            <mxPoint x="1091" y="478" as="sourcePoint" />
            <mxPoint x="1211" y="634" as="targetPoint" />
          </mxGeometry>
        </mxCell>
        <mxCell id="wz7HzAPbCdKOKnJgc9Ps-131" style="rounded=0;orthogonalLoop=1;jettySize=auto;html=1;exitX=1;exitY=0.5;exitDx=0;exitDy=0;entryX=0;entryY=0.5;entryDx=0;entryDy=0;endArrow=none;startFill=0;" edge="1" parent="1" source="wz7HzAPbCdKOKnJgc9Ps-117" target="wz7HzAPbCdKOKnJgc9Ps-119">
          <mxGeometry relative="1" as="geometry">
            <mxPoint x="1091" y="558" as="sourcePoint" />
            <mxPoint x="1211" y="554" as="targetPoint" />
          </mxGeometry>
        </mxCell>
        <mxCell id="wz7HzAPbCdKOKnJgc9Ps-132" style="rounded=0;orthogonalLoop=1;jettySize=auto;html=1;exitX=1;exitY=0.5;exitDx=0;exitDy=0;entryX=0;entryY=0.5;entryDx=0;entryDy=0;endArrow=none;startFill=0;" edge="1" parent="1" source="wz7HzAPbCdKOKnJgc9Ps-116" target="wz7HzAPbCdKOKnJgc9Ps-118">
          <mxGeometry relative="1" as="geometry">
            <mxPoint x="1091" y="558" as="sourcePoint" />
            <mxPoint x="1211" y="634" as="targetPoint" />
          </mxGeometry>
        </mxCell>
        <mxCell id="wz7HzAPbCdKOKnJgc9Ps-133" style="rounded=0;orthogonalLoop=1;jettySize=auto;html=1;exitX=1;exitY=0.5;exitDx=0;exitDy=0;endArrow=none;startFill=0;entryX=0;entryY=0.5;entryDx=0;entryDy=0;" edge="1" parent="1" source="wz7HzAPbCdKOKnJgc9Ps-116" target="wz7HzAPbCdKOKnJgc9Ps-119">
          <mxGeometry relative="1" as="geometry">
            <mxPoint x="1091" y="628" as="sourcePoint" />
            <mxPoint x="1201" y="624" as="targetPoint" />
          </mxGeometry>
        </mxCell>
        <mxCell id="wz7HzAPbCdKOKnJgc9Ps-134" style="rounded=0;orthogonalLoop=1;jettySize=auto;html=1;exitX=1;exitY=0.5;exitDx=0;exitDy=0;entryX=0;entryY=0.5;entryDx=0;entryDy=0;endArrow=none;startFill=0;" edge="1" parent="1" source="wz7HzAPbCdKOKnJgc9Ps-115" target="wz7HzAPbCdKOKnJgc9Ps-119">
          <mxGeometry relative="1" as="geometry">
            <mxPoint x="1101" y="638" as="sourcePoint" />
            <mxPoint x="1221" y="564" as="targetPoint" />
          </mxGeometry>
        </mxCell>
        <mxCell id="wz7HzAPbCdKOKnJgc9Ps-135" style="rounded=0;orthogonalLoop=1;jettySize=auto;html=1;exitX=1;exitY=0.5;exitDx=0;exitDy=0;entryX=0;entryY=0.5;entryDx=0;entryDy=0;endArrow=none;startFill=0;" edge="1" parent="1" source="wz7HzAPbCdKOKnJgc9Ps-115" target="wz7HzAPbCdKOKnJgc9Ps-118">
          <mxGeometry relative="1" as="geometry">
            <mxPoint x="1091" y="718" as="sourcePoint" />
            <mxPoint x="1211" y="634" as="targetPoint" />
          </mxGeometry>
        </mxCell>
        <mxCell id="wz7HzAPbCdKOKnJgc9Ps-136" style="rounded=0;orthogonalLoop=1;jettySize=auto;html=1;exitX=1;exitY=0.5;exitDx=0;exitDy=0;entryX=0;entryY=0.5;entryDx=0;entryDy=0;endArrow=none;startFill=0;" edge="1" parent="1" source="wz7HzAPbCdKOKnJgc9Ps-63" target="wz7HzAPbCdKOKnJgc9Ps-112">
          <mxGeometry relative="1" as="geometry">
            <mxPoint x="640" y="630" as="sourcePoint" />
            <mxPoint x="760" y="790" as="targetPoint" />
          </mxGeometry>
        </mxCell>
        <mxCell id="wz7HzAPbCdKOKnJgc9Ps-137" style="rounded=0;orthogonalLoop=1;jettySize=auto;html=1;exitX=1;exitY=0.5;exitDx=0;exitDy=0;entryX=0;entryY=0.5;entryDx=0;entryDy=0;endArrow=none;startFill=0;" edge="1" parent="1" source="wz7HzAPbCdKOKnJgc9Ps-64" target="wz7HzAPbCdKOKnJgc9Ps-112">
          <mxGeometry relative="1" as="geometry">
            <mxPoint x="610" y="790" as="sourcePoint" />
            <mxPoint x="880" y="554" as="targetPoint" />
          </mxGeometry>
        </mxCell>
        <mxCell id="wz7HzAPbCdKOKnJgc9Ps-138" style="rounded=0;orthogonalLoop=1;jettySize=auto;html=1;exitX=1;exitY=0.5;exitDx=0;exitDy=0;entryX=0;entryY=0.5;entryDx=0;entryDy=0;endArrow=none;startFill=0;" edge="1" parent="1" source="wz7HzAPbCdKOKnJgc9Ps-63" target="wz7HzAPbCdKOKnJgc9Ps-113">
          <mxGeometry relative="1" as="geometry">
            <mxPoint x="610" y="870" as="sourcePoint" />
            <mxPoint x="880" y="554" as="targetPoint" />
          </mxGeometry>
        </mxCell>
        <mxCell id="wz7HzAPbCdKOKnJgc9Ps-139" style="rounded=0;orthogonalLoop=1;jettySize=auto;html=1;exitX=1;exitY=0.5;exitDx=0;exitDy=0;entryX=0;entryY=0.5;entryDx=0;entryDy=0;endArrow=none;startFill=0;" edge="1" parent="1" source="wz7HzAPbCdKOKnJgc9Ps-64" target="wz7HzAPbCdKOKnJgc9Ps-113">
          <mxGeometry relative="1" as="geometry">
            <mxPoint x="610" y="790" as="sourcePoint" />
            <mxPoint x="880" y="634" as="targetPoint" />
          </mxGeometry>
        </mxCell>
        <mxCell id="wz7HzAPbCdKOKnJgc9Ps-140" style="rounded=0;orthogonalLoop=1;jettySize=auto;html=1;exitX=1;exitY=0.5;exitDx=0;exitDy=0;entryX=0;entryY=0.5;entryDx=0;entryDy=0;endArrow=none;startFill=0;" edge="1" parent="1" source="wz7HzAPbCdKOKnJgc9Ps-17" target="wz7HzAPbCdKOKnJgc9Ps-112">
          <mxGeometry relative="1" as="geometry">
            <mxPoint x="610" y="790" as="sourcePoint" />
            <mxPoint x="880" y="554" as="targetPoint" />
          </mxGeometry>
        </mxCell>
        <mxCell id="wz7HzAPbCdKOKnJgc9Ps-141" style="rounded=0;orthogonalLoop=1;jettySize=auto;html=1;exitX=1;exitY=0.5;exitDx=0;exitDy=0;entryX=0;entryY=0.5;entryDx=0;entryDy=0;endArrow=none;startFill=0;" edge="1" parent="1" source="wz7HzAPbCdKOKnJgc9Ps-18" target="wz7HzAPbCdKOKnJgc9Ps-112">
          <mxGeometry relative="1" as="geometry">
            <mxPoint x="610" y="310" as="sourcePoint" />
            <mxPoint x="880" y="554" as="targetPoint" />
          </mxGeometry>
        </mxCell>
        <mxCell id="wz7HzAPbCdKOKnJgc9Ps-142" style="rounded=0;orthogonalLoop=1;jettySize=auto;html=1;exitX=1;exitY=0.5;exitDx=0;exitDy=0;entryX=0;entryY=0.5;entryDx=0;entryDy=0;endArrow=none;startFill=0;" edge="1" parent="1" source="wz7HzAPbCdKOKnJgc9Ps-17" target="wz7HzAPbCdKOKnJgc9Ps-113">
          <mxGeometry relative="1" as="geometry">
            <mxPoint x="610" y="310" as="sourcePoint" />
            <mxPoint x="880" y="554" as="targetPoint" />
          </mxGeometry>
        </mxCell>
        <mxCell id="wz7HzAPbCdKOKnJgc9Ps-143" style="rounded=0;orthogonalLoop=1;jettySize=auto;html=1;exitX=1;exitY=0.5;exitDx=0;exitDy=0;endArrow=none;startFill=0;entryX=0;entryY=0.5;entryDx=0;entryDy=0;" edge="1" parent="1" source="wz7HzAPbCdKOKnJgc9Ps-18" target="wz7HzAPbCdKOKnJgc9Ps-113">
          <mxGeometry relative="1" as="geometry">
            <mxPoint x="610" y="310" as="sourcePoint" />
            <mxPoint x="1040" y="330" as="targetPoint" />
          </mxGeometry>
        </mxCell>
        <mxCell id="wz7HzAPbCdKOKnJgc9Ps-144" value="&lt;font style=&quot;font-size: 28px;&quot;&gt;Inputs&lt;/font&gt;" style="text;html=1;align=center;verticalAlign=middle;whiteSpace=wrap;rounded=0;" vertex="1" parent="1">
          <mxGeometry x="150" y="70" width="60" height="30" as="geometry" />
        </mxCell>
        <mxCell id="wz7HzAPbCdKOKnJgc9Ps-145" value="&lt;font style=&quot;font-size: 28px;&quot;&gt;Hidden Layer&lt;/font&gt;" style="text;html=1;align=center;verticalAlign=middle;whiteSpace=wrap;rounded=0;" vertex="1" parent="1">
          <mxGeometry x="280" y="70" width="200" height="30" as="geometry" />
        </mxCell>
        <mxCell id="wz7HzAPbCdKOKnJgc9Ps-146" value="&lt;font style=&quot;font-size: 28px;&quot;&gt;Raw Outputs&lt;/font&gt;" style="text;html=1;align=center;verticalAlign=middle;whiteSpace=wrap;rounded=0;" vertex="1" parent="1">
          <mxGeometry x="485" y="70" width="190" height="30" as="geometry" />
        </mxCell>
        <mxCell id="wz7HzAPbCdKOKnJgc9Ps-148" value="" style="whiteSpace=wrap;html=1;aspect=fixed;fillColor=none;strokeColor=#d6b656;strokeWidth=4;" vertex="1" parent="1">
          <mxGeometry x="866" y="390" width="390" height="390" as="geometry" />
        </mxCell>
        <mxCell id="wz7HzAPbCdKOKnJgc9Ps-149" value="&lt;span style=&quot;font-size: 28px;&quot;&gt;Global Model&lt;/span&gt;" style="text;html=1;align=center;verticalAlign=middle;whiteSpace=wrap;rounded=0;" vertex="1" parent="1">
          <mxGeometry x="966" y="320" width="190" height="30" as="geometry" />
        </mxCell>
      </root>
    </mxGraphModel>
  </diagram>
</mxfile>
